# xmcd
#
# Track frame offsets:
#	150
#	11192
#	21705
#	33887
#	44371
#	54796
#	67321
#	76474
#	87812
#	99602
#	114572
#	131695
#	146354
#	162562
#	176709
#	207057
#	217744
#	230812
#	260168
#	268598
#	281266
#	300198
#	312897
#
# Disc length: 4382 seconds
#
# Revision: 18
# Processed by: cddbd v1.5.2PL0 Copyright (c) Steve Scherf et al.
# Submitted via: EasyCDDAExtractor 10.2.0.1
#
DISCID=48111c17
DTITLE=Eric Clapton - Crossroads CD 1
DYEAR=1988
DGENRE=Blues
TTITLE0=Boom Boom (The Yardbirds)
TTITLE1=Honey In Your Hips (The Yardbirds)
TTITLE2=Baby What's Wrong (The Yardbirds)
TTITLE3=I Wish You Would (The Yardbirds)
TTITLE4=A Certain Girl (The Yardbirds)
TTITLE5=Good Morning Little Schoolgirl (The Yardbirds)
TTITLE6=I Ain't Got You (The Yardbirds)
TTITLE7=For Your Love (The Yardbirds)
TTITLE8=Got To Hurry (The Yardbirds)
TTITLE9=Lonely Years (John Mayall And Eric Clapton)
TTITLE10=Bernard Jenkins (John Mayall And Eric Clapton)
TTITLE11=Hideaway (John Mayall's Bluesbreakers)
TTITLE12=All Your Love (John Mayall's Bluesbreakers)
TTITLE13=Ramblin' On My Mind (John Mayall's Bluesbreakers)
TTITLE14=Have You Ever Loved A Woman (John Mayall's Bluesbreakers)
TTITLE15=Wrapping Paper (Cream)
TTITLE16=I Feel Free (Cream)
TTITLE17=Spoonful (Cream)
TTITLE18=Lawdy Mama (Cream)
TTITLE19=Strange Brew (Cream)
TTITLE20=Sunshine Of Your Love (Cream)
TTITLE21=Tales Of Brave Ulysses (Cream)
TTITLE22=Steppin' Out (Cream)
EXTD=YEAR: 1988
EXTT0=
EXTT1=
EXTT2=
EXTT3=
EXTT4=
EXTT5=
EXTT6=
EXTT7=
EXTT8=
EXTT9=
EXTT10=
EXTT11=
EXTT12=
EXTT13=
EXTT14=
EXTT15=
EXTT16=
EXTT17=
EXTT18=
EXTT19=
EXTT20=
EXTT21=
EXTT22=
PLAYORDER=
